<?xml version="1.0" encoding="utf-8"?>
<!-- Generator: Adobe Illustrator 24.0.1, SVG Export Plug-In . SVG Version: 6.00 Build 0)  -->
<svg version="1.1" id="Layer_1" xmlns="http://www.w3.org/2000/svg" xmlns:xlink="http://www.w3.org/1999/xlink" x="0px" y="0px"
	 viewBox="0 0 24 24" style="enable-background:new 0 0 24 24;" xml:space="preserve">
<style type="text/css">
	.st0{fill:none;}
	.st1{stroke:#000000;stroke-width:1.2878;}
	.st2{fill:#336791;}
	.st3{fill:none;stroke:#FFFFFF;stroke-width:0.4293;stroke-linecap:round;stroke-linejoin:round;}
	.st4{fill:none;stroke:#FFFFFF;stroke-width:0.4293;stroke-linecap:round;stroke-linejoin:bevel;}
	.st5{fill:#FFFFFF;stroke:#FFFFFF;stroke-width:0.1431;}
	.st6{fill:#FFFFFF;stroke:#FFFFFF;stroke-width:7.154651e-02;}
	.st7{fill:none;stroke:#FFFFFF;stroke-width:0.1033;stroke-linecap:round;stroke-linejoin:round;}
</style>
<rect class="st0" width="24" height="24"/>
<path d="M22,11V3h-7v3H9V3H2v8h7V8h2v10h4v3h7v-8h-7v3h-2V8h2v3H22z M7,9H4V5h3V9z M17,15h3v4h-3V15z M17,5h3v4h-3V5z"/>
<g id="Layer_x0020_3">
	<path class="st1" d="M11.6,18.7c0.1-0.8,0.1-0.9,0.7-0.8l0.2,0c0.5,0,1.1-0.1,1.4-0.2c0.8-0.4,1.2-1,0.5-0.8
		c-1.7,0.4-1.9-0.2-1.9-0.2c1.8-2.7,2.6-6.2,1.9-7c-1.8-2.3-4.9-1.2-5-1.2l0,0C9.1,8.4,8.7,8.4,8.3,8.4c-0.8,0-1.4,0.2-1.8,0.5
		c0,0-5.6-2.3-5.3,2.9c0.1,1.1,1.6,8.3,3.4,6.1c0.7-0.8,1.3-1.5,1.3-1.5c0.3,0.2,0.7,0.3,1.1,0.3l0,0c0,0.1,0,0.2,0,0.3
		c-0.5,0.5-0.3,0.6-1.3,0.8c-0.9,0.2-0.4,0.5,0,0.6c0.4,0.1,1.5,0.3,2.1-0.7l0,0.1C8,18,8,19,8,19.6c0,0.6,0.1,1.3,0.2,1.6
		c0.1,0.4,0.3,1.3,1.5,1C10.7,22,11.5,21.7,11.6,18.7"/>
	<path class="st2" d="M14.3,16.9c-1.7,0.4-1.9-0.2-1.9-0.2c1.8-2.7,2.6-6.2,1.9-7c-1.8-2.3-4.9-1.2-5-1.2l0,0
		C9.1,8.4,8.7,8.4,8.3,8.4c-0.8,0-1.4,0.2-1.8,0.5c0,0-5.6-2.3-5.3,2.9c0.1,1.1,1.6,8.3,3.4,6.1c0.7-0.8,1.3-1.5,1.3-1.5
		c0.3,0.2,0.7,0.3,1.1,0.3l0,0c0,0.1,0,0.2,0,0.3c-0.5,0.5-0.3,0.6-1.3,0.8c-0.9,0.2-0.4,0.5,0,0.6c0.4,0.1,1.5,0.3,2.1-0.7l0,0.1
		c0.2,0.1,0.3,1,0.3,1.7c0,0.7,0,1.2,0.1,1.6c0.1,0.4,0.3,1.3,1.5,1c1-0.2,1.6-0.8,1.6-1.7c0.1-0.7,0.2-0.6,0.2-1.2l0.1-0.3
		c0.1-0.9,0-1.2,0.6-1.1l0.2,0c0.5,0,1.1-0.1,1.4-0.2C14.6,17.4,15.1,16.8,14.3,16.9L14.3,16.9z"/>
	<path class="st3" d="M7.9,17.4c0,1.7,0,3.4,0.2,3.8c0.2,0.4,0.5,1.2,1.8,1c1-0.2,1.4-0.6,1.6-1.6c0.1-0.7,0.3-2.6,0.4-3"/>
	<path class="st3" d="M6.4,8.9c0,0-5.6-2.3-5.3,2.9c0.1,1.1,1.6,8.3,3.4,6.1c0.7-0.8,1.3-1.4,1.3-1.4"/>
	<path class="st3" d="M9.4,8.5c-0.2,0.1,3.1-1.2,5,1.2c0.7,0.8-0.1,4.3-1.9,7"/>
	<path class="st4" d="M12.5,16.7c0,0,0.1,0.6,1.9,0.2c0.8-0.2,0.3,0.4-0.5,0.8c-0.6,0.3-2,0.4-2.1,0C11.7,16.6,12.5,16.9,12.5,16.7
		c-0.1-0.2-0.4-0.5-0.7-1c-0.2-0.5-2.9-4.4,0.7-3.8c0.1,0-0.9-3.4-4.3-3.5C4.9,8.3,5,12.5,5,12.5"/>
	<path class="st3" d="M7,17c-0.5,0.5-0.3,0.6-1.3,0.8c-0.9,0.2-0.4,0.5,0,0.6c0.4,0.1,1.5,0.3,2.1-0.7c0.2-0.3,0-0.8-0.3-0.9
		C7.4,16.8,7.2,16.8,7,17L7,17z"/>
	<path class="st3" d="M6.9,17c0-0.3,0.1-0.7,0.3-1.1c0.2-0.6,0.8-1.3,0.3-3.3C7.2,11.1,5,12.3,5,12.5c0,0.2,0.1,1,0,2
		c-0.2,1.3,0.8,2.3,1.9,2.2"/>
	<path class="st5" d="M6.4,12.5c0,0.1,0.1,0.3,0.3,0.3c0.2,0,0.3-0.1,0.3-0.2c0-0.1-0.1-0.1-0.3-0.2C6.6,12.4,6.4,12.4,6.4,12.5
		L6.4,12.5z"/>
	<path class="st6" d="M11.9,12.3c0,0.1-0.1,0.3-0.3,0.3c-0.2,0-0.3-0.1-0.3-0.2c0-0.1,0.1-0.1,0.3-0.2
		C11.7,12.2,11.9,12.2,11.9,12.3L11.9,12.3z"/>
	<path class="st3" d="M12.5,11.8c0,0.6-0.1,0.9-0.1,1.5c0,0.9,0.4,1.8-0.2,2.8"/>
	<path class="st7" d="M0.5,9.7"/>
</g>
</svg>
