<?xml version="1.0" encoding="utf-8"?>
<!-- Generator: Adobe Illustrator 24.0.1, SVG Export Plug-In . SVG Version: 6.00 Build 0)  -->
<svg version="1.1" id="Layer_1" xmlns="http://www.w3.org/2000/svg" xmlns:xlink="http://www.w3.org/1999/xlink" x="0px" y="0px"
	 viewBox="0 0 24 24" style="enable-background:new 0 0 24 24;" xml:space="preserve">
<style type="text/css">
	.st0{fill:none;}
	.st1{fill:#092E20;}
	.st2{fill:#FFFFFD;}
</style>
<rect class="st0" width="24" height="24"/>
<path d="M22,11V3h-7v3H9V3H2v8h7V8h2v10h4v3h7v-8h-7v3h-2V8h2v3H22z M7,9H4V5h3V9z M17,15h3v4h-3V15z M17,5h3v4h-3V5z"/>
<path class="st1" d="M2.1,12.3h8.7c0.7,0,1.2,0.5,1.2,1.2v8.7c0,0.7-0.5,1.2-1.2,1.2H2.1c-0.7,0-1.2-0.5-1.2-1.2v-8.7
	C0.9,12.8,1.4,12.3,2.1,12.3z"/>
<path class="st2" d="M9,16.4v2.9c0,1-0.1,1.5-0.3,1.9c-0.2,0.4-0.5,0.6-1,0.9l-1.2-0.5c0.5-0.3,0.8-0.5,1-0.8
	c0.2-0.4,0.2-0.8,0.2-1.8v-2.4H9z M7,14.4v5.7c-0.6,0.1-1.1,0.2-1.6,0.2c-1.5,0-2.3-0.7-2.3-2c0-1.3,0.8-2.1,2.1-2.1
	c0.2,0,0.4,0,0.5,0.1v-1.9H7z M5.3,17.3c-0.6,0-1,0.4-1,1.1c0,0.7,0.3,1,1,1c0.1,0,0.2,0,0.4,0v-2C5.6,17.3,5.5,17.3,5.3,17.3z
	 M9,14.4v1.3H7.7v-1.3H9z"/>
</svg>
